<mxfile host="app.diagrams.net" agent="Mozilla/5.0 (Windows NT 10.0; Win64; x64; rv:129.0) Gecko/20100101 Firefox/129.0" version="24.7.10">
  <diagram name="Page-1" id="lQrnTQ-c5r3qGrzf0fZM">
    <mxGraphModel dx="3271" dy="1664" grid="1" gridSize="10" guides="1" tooltips="1" connect="1" arrows="1" fold="1" page="1" pageScale="1" pageWidth="3300" pageHeight="4681" math="0" shadow="0">
      <root>
        <mxCell id="0" />
        <mxCell id="1" parent="0" />
        <mxCell id="0WFvR2r78yilENnCxm7Q-1" value="START" style="ellipse;whiteSpace=wrap;html=1;fillColor=#647687;strokeColor=#314354;fontColor=#ffffff;" parent="1" vertex="1">
          <mxGeometry x="1780" y="390" width="120" height="60" as="geometry" />
        </mxCell>
        <mxCell id="0WFvR2r78yilENnCxm7Q-2" value="" style="endArrow=classic;html=1;rounded=0;" parent="1" edge="1">
          <mxGeometry width="50" height="50" relative="1" as="geometry">
            <mxPoint x="1840" y="450" as="sourcePoint" />
            <mxPoint x="1840" y="490" as="targetPoint" />
          </mxGeometry>
        </mxCell>
        <mxCell id="0WFvR2r78yilENnCxm7Q-4" value="Jemput Maba" style="shape=parallelogram;perimeter=parallelogramPerimeter;whiteSpace=wrap;html=1;fixedSize=1;fillColor=#dae8fc;strokeColor=#6c8ebf;" parent="1" vertex="1">
          <mxGeometry x="1780" y="490" width="120" height="60" as="geometry" />
        </mxCell>
        <mxCell id="0WFvR2r78yilENnCxm7Q-5" value="" style="endArrow=classic;html=1;rounded=0;" parent="1" edge="1">
          <mxGeometry width="50" height="50" relative="1" as="geometry">
            <mxPoint x="1839.5" y="550" as="sourcePoint" />
            <mxPoint x="1839.5" y="590" as="targetPoint" />
          </mxGeometry>
        </mxCell>
        <mxCell id="0WFvR2r78yilENnCxm7Q-6" value="mendapat gelang" style="rounded=0;whiteSpace=wrap;html=1;" parent="1" vertex="1">
          <mxGeometry x="1550" y="490" width="120" height="60" as="geometry" />
        </mxCell>
        <mxCell id="0WFvR2r78yilENnCxm7Q-7" value="Mengikuti kegiatan?" style="rhombus;whiteSpace=wrap;html=1;fillColor=#bac8d3;strokeColor=#23445d;" parent="1" vertex="1">
          <mxGeometry x="1785" y="590" width="110" height="110" as="geometry" />
        </mxCell>
        <mxCell id="0WFvR2r78yilENnCxm7Q-8" value="" style="endArrow=classic;html=1;rounded=0;" parent="1" edge="1">
          <mxGeometry width="50" height="50" relative="1" as="geometry">
            <mxPoint x="1720" y="519.5" as="sourcePoint" />
            <mxPoint x="1670" y="519.5" as="targetPoint" />
          </mxGeometry>
        </mxCell>
        <mxCell id="0WFvR2r78yilENnCxm7Q-9" value="" style="endArrow=none;html=1;rounded=0;" parent="1" edge="1">
          <mxGeometry width="50" height="50" relative="1" as="geometry">
            <mxPoint x="1720" y="645" as="sourcePoint" />
            <mxPoint x="1720" y="520" as="targetPoint" />
          </mxGeometry>
        </mxCell>
        <mxCell id="0WFvR2r78yilENnCxm7Q-10" value="" style="endArrow=none;html=1;rounded=0;" parent="1" edge="1">
          <mxGeometry width="50" height="50" relative="1" as="geometry">
            <mxPoint x="1720" y="645" as="sourcePoint" />
            <mxPoint x="1785" y="644.5" as="targetPoint" />
          </mxGeometry>
        </mxCell>
        <mxCell id="0WFvR2r78yilENnCxm7Q-11" value="ya" style="text;html=1;align=center;verticalAlign=middle;resizable=0;points=[];autosize=1;strokeColor=none;fillColor=none;" parent="1" vertex="1">
          <mxGeometry x="1740" y="620" width="40" height="30" as="geometry" />
        </mxCell>
        <mxCell id="0WFvR2r78yilENnCxm7Q-12" value="" style="endArrow=none;html=1;rounded=0;" parent="1" edge="1">
          <mxGeometry width="50" height="50" relative="1" as="geometry">
            <mxPoint x="1895" y="645.12" as="sourcePoint" />
            <mxPoint x="1960" y="644.62" as="targetPoint" />
          </mxGeometry>
        </mxCell>
        <mxCell id="0WFvR2r78yilENnCxm7Q-13" value="tidak" style="text;html=1;align=center;verticalAlign=middle;resizable=0;points=[];autosize=1;strokeColor=none;fillColor=none;" parent="1" vertex="1">
          <mxGeometry x="1895" y="620" width="50" height="30" as="geometry" />
        </mxCell>
        <mxCell id="0WFvR2r78yilENnCxm7Q-14" value="" style="endArrow=none;html=1;rounded=0;" parent="1" edge="1">
          <mxGeometry width="50" height="50" relative="1" as="geometry">
            <mxPoint x="1960" y="645" as="sourcePoint" />
            <mxPoint x="1960" y="520" as="targetPoint" />
          </mxGeometry>
        </mxCell>
        <mxCell id="0WFvR2r78yilENnCxm7Q-15" value="" style="endArrow=classic;html=1;rounded=0;" parent="1" edge="1">
          <mxGeometry width="50" height="50" relative="1" as="geometry">
            <mxPoint x="1960" y="519.6192307692307" as="sourcePoint" />
            <mxPoint x="2010" y="519.6192307692307" as="targetPoint" />
          </mxGeometry>
        </mxCell>
        <mxCell id="4jfNHU_rTczjnq5Zc762-1" style="edgeStyle=orthogonalEdgeStyle;rounded=0;orthogonalLoop=1;jettySize=auto;html=1;exitX=0.5;exitY=1;exitDx=0;exitDy=0;entryX=1;entryY=0.5;entryDx=0;entryDy=0;" edge="1" parent="1" source="0WFvR2r78yilENnCxm7Q-16" target="0WFvR2r78yilENnCxm7Q-18">
          <mxGeometry relative="1" as="geometry">
            <Array as="points">
              <mxPoint x="2070" y="730" />
            </Array>
          </mxGeometry>
        </mxCell>
        <mxCell id="0WFvR2r78yilENnCxm7Q-16" value="meminta kepada panitia" style="rounded=0;whiteSpace=wrap;html=1;" parent="1" vertex="1">
          <mxGeometry x="2010" y="490" width="120" height="60" as="geometry" />
        </mxCell>
        <mxCell id="0WFvR2r78yilENnCxm7Q-17" value="" style="endArrow=classic;html=1;rounded=0;" parent="1" edge="1">
          <mxGeometry width="50" height="50" relative="1" as="geometry">
            <mxPoint x="1609.52" y="550" as="sourcePoint" />
            <mxPoint x="1610" y="700" as="targetPoint" />
          </mxGeometry>
        </mxCell>
        <mxCell id="0WFvR2r78yilENnCxm7Q-18" value="Demo" style="shape=parallelogram;perimeter=parallelogramPerimeter;whiteSpace=wrap;html=1;fixedSize=1;fillColor=#dae8fc;strokeColor=#6c8ebf;" parent="1" vertex="1">
          <mxGeometry x="1550" y="700" width="120" height="60" as="geometry" />
        </mxCell>
        <mxCell id="0WFvR2r78yilENnCxm7Q-19" value="" style="endArrow=classic;html=1;rounded=0;exitX=0.5;exitY=1;exitDx=0;exitDy=0;" parent="1" source="0WFvR2r78yilENnCxm7Q-18" edge="1">
          <mxGeometry width="50" height="50" relative="1" as="geometry">
            <mxPoint x="1609.52" y="830" as="sourcePoint" />
            <mxPoint x="1610" y="870" as="targetPoint" />
          </mxGeometry>
        </mxCell>
        <mxCell id="0WFvR2r78yilENnCxm7Q-20" value="Mengikuti kegiatan?" style="rhombus;whiteSpace=wrap;html=1;fillColor=#bac8d3;strokeColor=#23445d;" parent="1" vertex="1">
          <mxGeometry x="1555" y="870" width="110" height="110" as="geometry" />
        </mxCell>
        <mxCell id="0WFvR2r78yilENnCxm7Q-22" value="tidak" style="text;html=1;align=center;verticalAlign=middle;resizable=0;points=[];autosize=1;strokeColor=none;fillColor=none;" parent="1" vertex="1">
          <mxGeometry x="1670" y="900" width="50" height="30" as="geometry" />
        </mxCell>
        <mxCell id="0WFvR2r78yilENnCxm7Q-23" value="" style="endArrow=none;html=1;rounded=0;" parent="1" edge="1">
          <mxGeometry width="50" height="50" relative="1" as="geometry">
            <mxPoint x="1665" y="925.02" as="sourcePoint" />
            <mxPoint x="1730" y="924.52" as="targetPoint" />
          </mxGeometry>
        </mxCell>
        <mxCell id="0WFvR2r78yilENnCxm7Q-24" value="" style="endArrow=none;html=1;rounded=0;" parent="1" edge="1">
          <mxGeometry width="50" height="50" relative="1" as="geometry">
            <mxPoint x="1490" y="925.02" as="sourcePoint" />
            <mxPoint x="1555" y="924.52" as="targetPoint" />
          </mxGeometry>
        </mxCell>
        <mxCell id="0WFvR2r78yilENnCxm7Q-25" value="" style="endArrow=none;html=1;rounded=0;" parent="1" edge="1">
          <mxGeometry width="50" height="50" relative="1" as="geometry">
            <mxPoint x="1730" y="925" as="sourcePoint" />
            <mxPoint x="1730" y="840" as="targetPoint" />
          </mxGeometry>
        </mxCell>
        <mxCell id="0WFvR2r78yilENnCxm7Q-26" value="" style="endArrow=none;html=1;rounded=0;" parent="1" edge="1">
          <mxGeometry width="50" height="50" relative="1" as="geometry">
            <mxPoint x="1490" y="925" as="sourcePoint" />
            <mxPoint x="1490" y="840" as="targetPoint" />
          </mxGeometry>
        </mxCell>
        <mxCell id="0WFvR2r78yilENnCxm7Q-27" value="" style="endArrow=classic;html=1;rounded=0;" parent="1" edge="1">
          <mxGeometry width="50" height="50" relative="1" as="geometry">
            <mxPoint x="1730" y="839.9992307692307" as="sourcePoint" />
            <mxPoint x="1780" y="839.9992307692307" as="targetPoint" />
          </mxGeometry>
        </mxCell>
        <mxCell id="0WFvR2r78yilENnCxm7Q-28" value="" style="endArrow=classic;html=1;rounded=0;" parent="1" edge="1">
          <mxGeometry width="50" height="50" relative="1" as="geometry">
            <mxPoint x="1490" y="839.9992307692307" as="sourcePoint" />
            <mxPoint x="1440" y="839.9992307692307" as="targetPoint" />
          </mxGeometry>
        </mxCell>
        <mxCell id="0WFvR2r78yilENnCxm7Q-43" style="edgeStyle=orthogonalEdgeStyle;rounded=0;orthogonalLoop=1;jettySize=auto;html=1;exitX=0.5;exitY=1;exitDx=0;exitDy=0;entryX=1;entryY=0.5;entryDx=0;entryDy=0;" parent="1" source="0WFvR2r78yilENnCxm7Q-29" target="0WFvR2r78yilENnCxm7Q-41" edge="1">
          <mxGeometry relative="1" as="geometry" />
        </mxCell>
        <mxCell id="0WFvR2r78yilENnCxm7Q-29" value="membaca buku panduan mandiri" style="rounded=0;whiteSpace=wrap;html=1;" parent="1" vertex="1">
          <mxGeometry x="1780" y="810" width="120" height="60" as="geometry" />
        </mxCell>
        <mxCell id="0WFvR2r78yilENnCxm7Q-30" value="mendapat penjelasan dari panitia" style="rounded=0;whiteSpace=wrap;html=1;" parent="1" vertex="1">
          <mxGeometry x="1320" y="810" width="120" height="60" as="geometry" />
        </mxCell>
        <mxCell id="0WFvR2r78yilENnCxm7Q-31" value="ya" style="text;html=1;align=center;verticalAlign=middle;resizable=0;points=[];autosize=1;strokeColor=none;fillColor=none;" parent="1" vertex="1">
          <mxGeometry x="1510" y="900" width="40" height="30" as="geometry" />
        </mxCell>
        <mxCell id="0WFvR2r78yilENnCxm7Q-34" value="" style="endArrow=classic;html=1;rounded=0;exitX=0.5;exitY=1;exitDx=0;exitDy=0;" parent="1" edge="1">
          <mxGeometry width="50" height="50" relative="1" as="geometry">
            <mxPoint x="1379.38" y="870" as="sourcePoint" />
            <mxPoint x="1379.38" y="980" as="targetPoint" />
          </mxGeometry>
        </mxCell>
        <mxCell id="0WFvR2r78yilENnCxm7Q-41" value="mendapat penugasan" style="rounded=0;whiteSpace=wrap;html=1;" parent="1" vertex="1">
          <mxGeometry x="1320" y="980" width="120" height="60" as="geometry" />
        </mxCell>
        <mxCell id="0WFvR2r78yilENnCxm7Q-51" style="edgeStyle=orthogonalEdgeStyle;rounded=0;orthogonalLoop=1;jettySize=auto;html=1;exitX=1;exitY=0.5;exitDx=0;exitDy=0;entryX=0;entryY=0.5;entryDx=0;entryDy=0;" parent="1" source="0WFvR2r78yilENnCxm7Q-44" target="0WFvR2r78yilENnCxm7Q-50" edge="1">
          <mxGeometry relative="1" as="geometry" />
        </mxCell>
        <mxCell id="0WFvR2r78yilENnCxm7Q-53" style="edgeStyle=orthogonalEdgeStyle;rounded=0;orthogonalLoop=1;jettySize=auto;html=1;exitX=0;exitY=0.5;exitDx=0;exitDy=0;entryX=1;entryY=0.5;entryDx=0;entryDy=0;" parent="1" source="0WFvR2r78yilENnCxm7Q-44" target="0WFvR2r78yilENnCxm7Q-52" edge="1">
          <mxGeometry relative="1" as="geometry" />
        </mxCell>
        <mxCell id="0WFvR2r78yilENnCxm7Q-44" value="Mengerjakan tugas?" style="rhombus;whiteSpace=wrap;html=1;fillColor=#bac8d3;strokeColor=#23445d;" parent="1" vertex="1">
          <mxGeometry x="1325" y="1100" width="110" height="110" as="geometry" />
        </mxCell>
        <mxCell id="0WFvR2r78yilENnCxm7Q-45" value="" style="endArrow=classic;html=1;rounded=0;exitX=0.5;exitY=1;exitDx=0;exitDy=0;" parent="1" source="0WFvR2r78yilENnCxm7Q-41" target="0WFvR2r78yilENnCxm7Q-44" edge="1">
          <mxGeometry width="50" height="50" relative="1" as="geometry">
            <mxPoint x="1400" y="1050" as="sourcePoint" />
            <mxPoint x="1450" y="1000" as="targetPoint" />
          </mxGeometry>
        </mxCell>
        <mxCell id="0WFvR2r78yilENnCxm7Q-46" value="ya" style="text;html=1;align=center;verticalAlign=middle;resizable=0;points=[];autosize=1;strokeColor=none;fillColor=none;" parent="1" vertex="1">
          <mxGeometry x="1260" y="1130" width="40" height="30" as="geometry" />
        </mxCell>
        <mxCell id="0WFvR2r78yilENnCxm7Q-47" value="tidak" style="text;html=1;align=center;verticalAlign=middle;resizable=0;points=[];autosize=1;strokeColor=none;fillColor=none;" parent="1" vertex="1">
          <mxGeometry x="1460" y="1130" width="50" height="30" as="geometry" />
        </mxCell>
        <mxCell id="0WFvR2r78yilENnCxm7Q-50" value="mendapat penugasan tambahan dari panitia" style="rounded=0;whiteSpace=wrap;html=1;" parent="1" vertex="1">
          <mxGeometry x="1650" y="1180" width="120" height="60" as="geometry" />
        </mxCell>
        <mxCell id="4jfNHU_rTczjnq5Zc762-2" style="edgeStyle=orthogonalEdgeStyle;rounded=0;orthogonalLoop=1;jettySize=auto;html=1;exitX=0.5;exitY=1;exitDx=0;exitDy=0;entryX=0.5;entryY=0;entryDx=0;entryDy=0;" edge="1" parent="1" source="0WFvR2r78yilENnCxm7Q-52" target="0WFvR2r78yilENnCxm7Q-54">
          <mxGeometry relative="1" as="geometry" />
        </mxCell>
        <mxCell id="0WFvR2r78yilENnCxm7Q-52" value="Mainphase" style="shape=parallelogram;perimeter=parallelogramPerimeter;whiteSpace=wrap;html=1;fixedSize=1;fillColor=#dae8fc;strokeColor=#6c8ebf;" parent="1" vertex="1">
          <mxGeometry x="990" y="1180" width="120" height="60" as="geometry" />
        </mxCell>
        <mxCell id="4jfNHU_rTczjnq5Zc762-3" style="edgeStyle=orthogonalEdgeStyle;rounded=0;orthogonalLoop=1;jettySize=auto;html=1;exitX=0.5;exitY=1;exitDx=0;exitDy=0;entryX=0.5;entryY=0;entryDx=0;entryDy=0;" edge="1" parent="1" source="0WFvR2r78yilENnCxm7Q-54" target="0WFvR2r78yilENnCxm7Q-55">
          <mxGeometry relative="1" as="geometry" />
        </mxCell>
        <mxCell id="0WFvR2r78yilENnCxm7Q-54" value="mengikuti kegiatan" style="rounded=0;whiteSpace=wrap;html=1;" parent="1" vertex="1">
          <mxGeometry x="990" y="1290" width="120" height="60" as="geometry" />
        </mxCell>
        <mxCell id="4jfNHU_rTczjnq5Zc762-5" style="edgeStyle=orthogonalEdgeStyle;rounded=0;orthogonalLoop=1;jettySize=auto;html=1;exitX=0.5;exitY=1;exitDx=0;exitDy=0;" edge="1" parent="1" source="0WFvR2r78yilENnCxm7Q-55" target="4jfNHU_rTczjnq5Zc762-4">
          <mxGeometry relative="1" as="geometry" />
        </mxCell>
        <mxCell id="0WFvR2r78yilENnCxm7Q-55" value="menaati tata tertib tata tertib yang ada" style="rounded=0;whiteSpace=wrap;html=1;" parent="1" vertex="1">
          <mxGeometry x="990" y="1410" width="120" height="60" as="geometry" />
        </mxCell>
        <mxCell id="4jfNHU_rTczjnq5Zc762-13" style="edgeStyle=orthogonalEdgeStyle;rounded=0;orthogonalLoop=1;jettySize=auto;html=1;exitX=1;exitY=0.5;exitDx=0;exitDy=0;entryX=0;entryY=0.5;entryDx=0;entryDy=0;" edge="1" parent="1" source="4jfNHU_rTczjnq5Zc762-4" target="4jfNHU_rTczjnq5Zc762-12">
          <mxGeometry relative="1" as="geometry" />
        </mxCell>
        <mxCell id="4jfNHU_rTczjnq5Zc762-14" style="edgeStyle=orthogonalEdgeStyle;rounded=0;orthogonalLoop=1;jettySize=auto;html=1;exitX=0.5;exitY=1;exitDx=0;exitDy=0;entryX=0.5;entryY=0;entryDx=0;entryDy=0;" edge="1" parent="1" source="4jfNHU_rTczjnq5Zc762-4" target="4jfNHU_rTczjnq5Zc762-15">
          <mxGeometry relative="1" as="geometry">
            <mxPoint x="1050" y="1670" as="targetPoint" />
            <Array as="points" />
          </mxGeometry>
        </mxCell>
        <mxCell id="4jfNHU_rTczjnq5Zc762-4" value="Menaati tata tertib?" style="rhombus;whiteSpace=wrap;html=1;fillColor=#bac8d3;strokeColor=#23445d;" vertex="1" parent="1">
          <mxGeometry x="995" y="1520" width="110" height="110" as="geometry" />
        </mxCell>
        <mxCell id="4jfNHU_rTczjnq5Zc762-10" value="tidak" style="text;html=1;align=center;verticalAlign=middle;resizable=0;points=[];autosize=1;strokeColor=none;fillColor=none;" vertex="1" parent="1">
          <mxGeometry x="1115" y="1550" width="50" height="30" as="geometry" />
        </mxCell>
        <mxCell id="4jfNHU_rTczjnq5Zc762-12" value="dieberi sanksi sesuai pelanggaran yang dilakukan" style="rounded=0;whiteSpace=wrap;html=1;" vertex="1" parent="1">
          <mxGeometry x="1270" y="1290" width="120" height="60" as="geometry" />
        </mxCell>
        <mxCell id="4jfNHU_rTczjnq5Zc762-42" style="edgeStyle=orthogonalEdgeStyle;rounded=0;orthogonalLoop=1;jettySize=auto;html=1;exitX=0.5;exitY=1;exitDx=0;exitDy=0;entryX=0.5;entryY=0;entryDx=0;entryDy=0;" edge="1" parent="1" source="4jfNHU_rTczjnq5Zc762-15" target="4jfNHU_rTczjnq5Zc762-16">
          <mxGeometry relative="1" as="geometry" />
        </mxCell>
        <mxCell id="4jfNHU_rTczjnq5Zc762-15" value="penugasan" style="rounded=0;whiteSpace=wrap;html=1;" vertex="1" parent="1">
          <mxGeometry x="990" y="1680" width="120" height="60" as="geometry" />
        </mxCell>
        <mxCell id="4jfNHU_rTczjnq5Zc762-19" style="edgeStyle=orthogonalEdgeStyle;rounded=0;orthogonalLoop=1;jettySize=auto;html=1;exitX=1;exitY=0.5;exitDx=0;exitDy=0;entryX=0.5;entryY=1;entryDx=0;entryDy=0;" edge="1" parent="1" source="4jfNHU_rTczjnq5Zc762-16" target="0WFvR2r78yilENnCxm7Q-50">
          <mxGeometry relative="1" as="geometry" />
        </mxCell>
        <mxCell id="4jfNHU_rTczjnq5Zc762-22" style="edgeStyle=orthogonalEdgeStyle;rounded=0;orthogonalLoop=1;jettySize=auto;html=1;exitX=0.5;exitY=1;exitDx=0;exitDy=0;entryX=0;entryY=0.5;entryDx=0;entryDy=0;" edge="1" parent="1" source="4jfNHU_rTczjnq5Zc762-16" target="4jfNHU_rTczjnq5Zc762-21">
          <mxGeometry relative="1" as="geometry">
            <Array as="points">
              <mxPoint x="1050" y="1930" />
            </Array>
          </mxGeometry>
        </mxCell>
        <mxCell id="4jfNHU_rTczjnq5Zc762-16" value="Mengerjakan tugas?" style="rhombus;whiteSpace=wrap;html=1;fillColor=#bac8d3;strokeColor=#23445d;" vertex="1" parent="1">
          <mxGeometry x="995" y="1780" width="110" height="110" as="geometry" />
        </mxCell>
        <mxCell id="4jfNHU_rTczjnq5Zc762-28" style="edgeStyle=orthogonalEdgeStyle;rounded=0;orthogonalLoop=1;jettySize=auto;html=1;exitX=0.5;exitY=1;exitDx=0;exitDy=0;entryX=0.5;entryY=0;entryDx=0;entryDy=0;" edge="1" parent="1" source="4jfNHU_rTczjnq5Zc762-21" target="4jfNHU_rTczjnq5Zc762-25">
          <mxGeometry relative="1" as="geometry" />
        </mxCell>
        <mxCell id="4jfNHU_rTczjnq5Zc762-21" value="PKKMD" style="shape=parallelogram;perimeter=parallelogramPerimeter;whiteSpace=wrap;html=1;fixedSize=1;fillColor=#dae8fc;strokeColor=#6c8ebf;" vertex="1" parent="1">
          <mxGeometry x="1270" y="1900" width="120" height="60" as="geometry" />
        </mxCell>
        <mxCell id="4jfNHU_rTczjnq5Zc762-23" value="tidak" style="text;html=1;align=center;verticalAlign=middle;resizable=0;points=[];autosize=1;strokeColor=none;fillColor=none;" vertex="1" parent="1">
          <mxGeometry x="1105" y="1800" width="50" height="30" as="geometry" />
        </mxCell>
        <mxCell id="4jfNHU_rTczjnq5Zc762-24" value="ya" style="text;html=1;align=center;verticalAlign=middle;resizable=0;points=[];autosize=1;strokeColor=none;fillColor=none;" vertex="1" parent="1">
          <mxGeometry x="1064" y="1900" width="30" height="30" as="geometry" />
        </mxCell>
        <mxCell id="4jfNHU_rTczjnq5Zc762-29" style="edgeStyle=orthogonalEdgeStyle;rounded=0;orthogonalLoop=1;jettySize=auto;html=1;exitX=0.5;exitY=1;exitDx=0;exitDy=0;entryX=0.5;entryY=0;entryDx=0;entryDy=0;" edge="1" parent="1" source="4jfNHU_rTczjnq5Zc762-25" target="4jfNHU_rTczjnq5Zc762-26">
          <mxGeometry relative="1" as="geometry" />
        </mxCell>
        <mxCell id="4jfNHU_rTczjnq5Zc762-25" value="mengikuti kegiatan" style="rounded=0;whiteSpace=wrap;html=1;" vertex="1" parent="1">
          <mxGeometry x="1270" y="1990" width="120" height="60" as="geometry" />
        </mxCell>
        <mxCell id="4jfNHU_rTczjnq5Zc762-30" style="edgeStyle=orthogonalEdgeStyle;rounded=0;orthogonalLoop=1;jettySize=auto;html=1;exitX=1;exitY=0.5;exitDx=0;exitDy=0;entryX=0;entryY=0.5;entryDx=0;entryDy=0;" edge="1" parent="1" source="4jfNHU_rTczjnq5Zc762-26" target="4jfNHU_rTczjnq5Zc762-27">
          <mxGeometry relative="1" as="geometry" />
        </mxCell>
        <mxCell id="4jfNHU_rTczjnq5Zc762-26" value="menaati tata tertib tata tertib yang ada" style="rounded=0;whiteSpace=wrap;html=1;" vertex="1" parent="1">
          <mxGeometry x="1270" y="2090" width="120" height="60" as="geometry" />
        </mxCell>
        <mxCell id="4jfNHU_rTczjnq5Zc762-31" style="edgeStyle=orthogonalEdgeStyle;rounded=0;orthogonalLoop=1;jettySize=auto;html=1;exitX=0.5;exitY=0;exitDx=0;exitDy=0;entryX=1;entryY=0.5;entryDx=0;entryDy=0;" edge="1" parent="1" source="4jfNHU_rTczjnq5Zc762-27" target="4jfNHU_rTczjnq5Zc762-12">
          <mxGeometry relative="1" as="geometry" />
        </mxCell>
        <mxCell id="4jfNHU_rTczjnq5Zc762-33" style="edgeStyle=orthogonalEdgeStyle;rounded=0;orthogonalLoop=1;jettySize=auto;html=1;exitX=0.5;exitY=1;exitDx=0;exitDy=0;entryX=0.5;entryY=0;entryDx=0;entryDy=0;" edge="1" parent="1" source="4jfNHU_rTczjnq5Zc762-27" target="4jfNHU_rTczjnq5Zc762-32">
          <mxGeometry relative="1" as="geometry" />
        </mxCell>
        <mxCell id="4jfNHU_rTczjnq5Zc762-27" value="Menaati tata tertib?" style="rhombus;whiteSpace=wrap;html=1;fillColor=#bac8d3;strokeColor=#23445d;" vertex="1" parent="1">
          <mxGeometry x="1460" y="2065" width="110" height="110" as="geometry" />
        </mxCell>
        <mxCell id="4jfNHU_rTczjnq5Zc762-35" style="edgeStyle=orthogonalEdgeStyle;rounded=0;orthogonalLoop=1;jettySize=auto;html=1;exitX=0.5;exitY=1;exitDx=0;exitDy=0;entryX=0.5;entryY=0;entryDx=0;entryDy=0;" edge="1" parent="1" source="4jfNHU_rTczjnq5Zc762-32" target="4jfNHU_rTczjnq5Zc762-34">
          <mxGeometry relative="1" as="geometry" />
        </mxCell>
        <mxCell id="4jfNHU_rTczjnq5Zc762-32" value="penugasan" style="rounded=0;whiteSpace=wrap;html=1;" vertex="1" parent="1">
          <mxGeometry x="1455" y="2220" width="120" height="60" as="geometry" />
        </mxCell>
        <mxCell id="4jfNHU_rTczjnq5Zc762-52" style="edgeStyle=orthogonalEdgeStyle;rounded=0;orthogonalLoop=1;jettySize=auto;html=1;exitX=0.5;exitY=1;exitDx=0;exitDy=0;entryX=0;entryY=0.25;entryDx=0;entryDy=0;" edge="1" parent="1" source="4jfNHU_rTczjnq5Zc762-34" target="4jfNHU_rTczjnq5Zc762-37">
          <mxGeometry relative="1" as="geometry">
            <Array as="points">
              <mxPoint x="1515" y="2460" />
              <mxPoint x="2000" y="2460" />
              <mxPoint x="2000" y="1198" />
            </Array>
          </mxGeometry>
        </mxCell>
        <mxCell id="4jfNHU_rTczjnq5Zc762-34" value="Mengerjakan tugas?" style="rhombus;whiteSpace=wrap;html=1;fillColor=#bac8d3;strokeColor=#23445d;" vertex="1" parent="1">
          <mxGeometry x="1460" y="2320" width="110" height="110" as="geometry" />
        </mxCell>
        <mxCell id="4jfNHU_rTczjnq5Zc762-36" style="edgeStyle=orthogonalEdgeStyle;rounded=0;orthogonalLoop=1;jettySize=auto;html=1;exitX=1;exitY=0.5;exitDx=0;exitDy=0;entryX=0.667;entryY=1;entryDx=0;entryDy=0;entryPerimeter=0;" edge="1" parent="1" source="4jfNHU_rTczjnq5Zc762-34" target="0WFvR2r78yilENnCxm7Q-50">
          <mxGeometry relative="1" as="geometry" />
        </mxCell>
        <mxCell id="4jfNHU_rTczjnq5Zc762-53" style="edgeStyle=orthogonalEdgeStyle;rounded=0;orthogonalLoop=1;jettySize=auto;html=1;exitX=0.5;exitY=1;exitDx=0;exitDy=0;entryX=0.5;entryY=0;entryDx=0;entryDy=0;" edge="1" parent="1" source="4jfNHU_rTczjnq5Zc762-37" target="4jfNHU_rTczjnq5Zc762-44">
          <mxGeometry relative="1" as="geometry" />
        </mxCell>
        <mxCell id="4jfNHU_rTczjnq5Zc762-37" value="Makrab" style="shape=parallelogram;perimeter=parallelogramPerimeter;whiteSpace=wrap;html=1;fixedSize=1;fillColor=#dae8fc;strokeColor=#6c8ebf;" vertex="1" parent="1">
          <mxGeometry x="2110" y="1180" width="120" height="60" as="geometry" />
        </mxCell>
        <mxCell id="4jfNHU_rTczjnq5Zc762-39" value="tidak" style="text;html=1;align=center;verticalAlign=middle;resizable=0;points=[];autosize=1;strokeColor=none;fillColor=none;" vertex="1" parent="1">
          <mxGeometry x="1520" y="2030" width="50" height="30" as="geometry" />
        </mxCell>
        <mxCell id="4jfNHU_rTczjnq5Zc762-40" value="ya" style="text;html=1;align=center;verticalAlign=middle;resizable=0;points=[];autosize=1;strokeColor=none;fillColor=none;" vertex="1" parent="1">
          <mxGeometry x="1520" y="2175" width="30" height="30" as="geometry" />
        </mxCell>
        <mxCell id="4jfNHU_rTczjnq5Zc762-43" value="ya" style="text;html=1;align=center;verticalAlign=middle;resizable=0;points=[];autosize=1;strokeColor=none;fillColor=none;" vertex="1" parent="1">
          <mxGeometry x="1050" y="1630" width="30" height="30" as="geometry" />
        </mxCell>
        <mxCell id="4jfNHU_rTczjnq5Zc762-55" style="edgeStyle=orthogonalEdgeStyle;rounded=0;orthogonalLoop=1;jettySize=auto;html=1;exitX=0.5;exitY=1;exitDx=0;exitDy=0;entryX=0.5;entryY=0;entryDx=0;entryDy=0;" edge="1" parent="1" source="4jfNHU_rTczjnq5Zc762-44" target="4jfNHU_rTczjnq5Zc762-46">
          <mxGeometry relative="1" as="geometry" />
        </mxCell>
        <mxCell id="4jfNHU_rTczjnq5Zc762-44" value="mengikuti kegiatan" style="rounded=0;whiteSpace=wrap;html=1;" vertex="1" parent="1">
          <mxGeometry x="2110" y="1290" width="120" height="60" as="geometry" />
        </mxCell>
        <mxCell id="4jfNHU_rTczjnq5Zc762-56" style="edgeStyle=orthogonalEdgeStyle;rounded=0;orthogonalLoop=1;jettySize=auto;html=1;exitX=0.5;exitY=1;exitDx=0;exitDy=0;" edge="1" parent="1" source="4jfNHU_rTczjnq5Zc762-46">
          <mxGeometry relative="1" as="geometry">
            <mxPoint x="2170" y="1550" as="targetPoint" />
          </mxGeometry>
        </mxCell>
        <mxCell id="4jfNHU_rTczjnq5Zc762-65" style="edgeStyle=orthogonalEdgeStyle;rounded=0;orthogonalLoop=1;jettySize=auto;html=1;exitX=1;exitY=0.5;exitDx=0;exitDy=0;entryX=0.5;entryY=1;entryDx=0;entryDy=0;" edge="1" parent="1" source="4jfNHU_rTczjnq5Zc762-46" target="4jfNHU_rTczjnq5Zc762-64">
          <mxGeometry relative="1" as="geometry" />
        </mxCell>
        <mxCell id="4jfNHU_rTczjnq5Zc762-46" value="Apakah mengikuti kegiatan?" style="rhombus;whiteSpace=wrap;html=1;fillColor=#bac8d3;strokeColor=#23445d;" vertex="1" parent="1">
          <mxGeometry x="2115" y="1380" width="110" height="110" as="geometry" />
        </mxCell>
        <mxCell id="4jfNHU_rTczjnq5Zc762-48" value="tidak" style="text;html=1;align=center;verticalAlign=middle;resizable=0;points=[];autosize=1;strokeColor=none;fillColor=none;" vertex="1" parent="1">
          <mxGeometry x="1570" y="2341" width="50" height="30" as="geometry" />
        </mxCell>
        <mxCell id="4jfNHU_rTczjnq5Zc762-49" value="ya" style="text;html=1;align=center;verticalAlign=middle;resizable=0;points=[];autosize=1;strokeColor=none;fillColor=none;" vertex="1" parent="1">
          <mxGeometry x="1530" y="2430" width="30" height="30" as="geometry" />
        </mxCell>
        <mxCell id="4jfNHU_rTczjnq5Zc762-61" style="edgeStyle=orthogonalEdgeStyle;rounded=0;orthogonalLoop=1;jettySize=auto;html=1;exitX=0.5;exitY=1;exitDx=0;exitDy=0;" edge="1" parent="1" source="4jfNHU_rTczjnq5Zc762-58" target="4jfNHU_rTczjnq5Zc762-59">
          <mxGeometry relative="1" as="geometry" />
        </mxCell>
        <mxCell id="4jfNHU_rTczjnq5Zc762-58" value="Lulus" style="shape=parallelogram;perimeter=parallelogramPerimeter;whiteSpace=wrap;html=1;fixedSize=1;fillColor=#dae8fc;strokeColor=#6c8ebf;" vertex="1" parent="1">
          <mxGeometry x="2110" y="1550" width="120" height="60" as="geometry" />
        </mxCell>
        <mxCell id="4jfNHU_rTczjnq5Zc762-59" value="SELESAI" style="ellipse;whiteSpace=wrap;html=1;fillColor=#647687;strokeColor=#314354;fontColor=#ffffff;" vertex="1" parent="1">
          <mxGeometry x="2110" y="1650" width="120" height="50" as="geometry" />
        </mxCell>
        <mxCell id="4jfNHU_rTczjnq5Zc762-62" value="tidak" style="text;html=1;align=center;verticalAlign=middle;resizable=0;points=[];autosize=1;strokeColor=none;fillColor=none;" vertex="1" parent="1">
          <mxGeometry x="2234" y="1398" width="50" height="30" as="geometry" />
        </mxCell>
        <mxCell id="4jfNHU_rTczjnq5Zc762-63" value="ya" style="text;html=1;align=center;verticalAlign=middle;resizable=0;points=[];autosize=1;strokeColor=none;fillColor=none;" vertex="1" parent="1">
          <mxGeometry x="2170" y="1500" width="30" height="30" as="geometry" />
        </mxCell>
        <mxCell id="4jfNHU_rTczjnq5Zc762-67" style="edgeStyle=orthogonalEdgeStyle;rounded=0;orthogonalLoop=1;jettySize=auto;html=1;exitX=1;exitY=0.5;exitDx=0;exitDy=0;" edge="1" parent="1" source="4jfNHU_rTczjnq5Zc762-64" target="4jfNHU_rTczjnq5Zc762-66">
          <mxGeometry relative="1" as="geometry" />
        </mxCell>
        <mxCell id="4jfNHU_rTczjnq5Zc762-64" value="mendapat penugasan pengganti" style="rounded=0;whiteSpace=wrap;html=1;" vertex="1" parent="1">
          <mxGeometry x="2330" y="1060" width="120" height="60" as="geometry" />
        </mxCell>
        <mxCell id="4jfNHU_rTczjnq5Zc762-68" style="edgeStyle=orthogonalEdgeStyle;rounded=0;orthogonalLoop=1;jettySize=auto;html=1;exitX=0.5;exitY=0;exitDx=0;exitDy=0;entryX=1;entryY=0.5;entryDx=0;entryDy=0;" edge="1" parent="1" source="4jfNHU_rTczjnq5Zc762-66" target="0WFvR2r78yilENnCxm7Q-1">
          <mxGeometry relative="1" as="geometry" />
        </mxCell>
        <mxCell id="4jfNHU_rTczjnq5Zc762-71" style="edgeStyle=orthogonalEdgeStyle;rounded=0;orthogonalLoop=1;jettySize=auto;html=1;exitX=0.5;exitY=1;exitDx=0;exitDy=0;entryX=1;entryY=0.5;entryDx=0;entryDy=0;" edge="1" parent="1" source="4jfNHU_rTczjnq5Zc762-66" target="4jfNHU_rTczjnq5Zc762-58">
          <mxGeometry relative="1" as="geometry">
            <Array as="points">
              <mxPoint x="2595" y="1580" />
            </Array>
          </mxGeometry>
        </mxCell>
        <mxCell id="4jfNHU_rTczjnq5Zc762-66" value="Apakah mengerjakan tugas?" style="rhombus;whiteSpace=wrap;html=1;fillColor=#bac8d3;strokeColor=#23445d;" vertex="1" parent="1">
          <mxGeometry x="2540" y="1035" width="110" height="110" as="geometry" />
        </mxCell>
        <mxCell id="4jfNHU_rTczjnq5Zc762-69" value="tidak" style="text;html=1;align=center;verticalAlign=middle;resizable=0;points=[];autosize=1;strokeColor=none;fillColor=none;" vertex="1" parent="1">
          <mxGeometry x="2594" y="978" width="50" height="30" as="geometry" />
        </mxCell>
        <mxCell id="4jfNHU_rTczjnq5Zc762-72" value="ya" style="text;html=1;align=center;verticalAlign=middle;resizable=0;points=[];autosize=1;strokeColor=none;fillColor=none;" vertex="1" parent="1">
          <mxGeometry x="2604" y="1145" width="30" height="30" as="geometry" />
        </mxCell>
        <mxCell id="4jfNHU_rTczjnq5Zc762-73" value="GITFLOW" style="text;html=1;align=center;verticalAlign=middle;resizable=0;points=[];autosize=1;strokeColor=none;fillColor=none;fontSize=57;fontFamily=Comic Sans MS;fontColor=#003366;textShadow=1;labelBorderColor=none;labelBackgroundColor=none;" vertex="1" parent="1">
          <mxGeometry x="2234" y="1930" width="300" height="80" as="geometry" />
        </mxCell>
        <mxCell id="4jfNHU_rTczjnq5Zc762-75" value="Alur Interface 2024" style="text;html=1;align=center;verticalAlign=middle;resizable=0;points=[];autosize=1;fillColor=none;fontSize=40;fontFamily=Comic Sans MS;fontColor=#3399FF;textShadow=1;" vertex="1" parent="1">
          <mxGeometry x="2185" y="2030" width="410" height="60" as="geometry" />
        </mxCell>
      </root>
    </mxGraphModel>
  </diagram>
</mxfile>
